<svg width="1440" height="608" viewBox="0 0 1440 608" fill="none" xmlns="http://www.w3.org/2000/svg">
<g clip-path="url(#clip0_4_23)">
<rect width="1440" height="608" fill="#121214"/>
<g opacity="0.1">
<path fill-rule="evenodd" clip-rule="evenodd" d="M1263.23 25.6025C1263.23 25.6025 1293.19 52.4588 1311 62.9008C1328.8 73.3427 1338.56 68.8683 1338.56 68.8683C1338.56 68.8683 1354.28 73.4598 1363.9 80.8619C1373.52 88.264 1375.09 93.8851 1381.05 101.346C1387.01 108.806 1405.24 106.762 1405.24 106.762L1446.78 128.339L1489.01 151.838C1489.01 151.838 1447.23 127.333 1442.82 119.873C1438.4 112.412 1404.09 85.2827 1398.12 77.822C1392.16 70.3614 1383.96 71.8545 1378 61.4126C1372.04 50.9706 1365.33 39.0307 1355.64 30.0818C1345.95 21.1281 1325.84 7.69995 1315.02 1.73242C1304.2 -4.23511 1287.06 -10.2026 1287.06 -10.2026L1257.25 -16.9167L1228.18 -32.8187H1094.76C1094.76 -32.8187 1160.2 12.1793 1189.94 23.3678C1201.2 27.5982 1263.24 25.6074 1263.24 25.6074L1263.23 25.6025Z" fill="#633BBC"/>
<path fill-rule="evenodd" clip-rule="evenodd" d="M602.591 164.68C602.591 164.68 625.14 179.435 631.444 184.842C637.748 190.248 658.453 192.654 662.51 194.156C666.566 195.659 676.288 209.18 676.288 209.18C676.288 209.18 681.889 219.178 683.23 226.346C684.576 233.514 702.556 241.628 702.556 241.628L719.615 248.84C719.615 248.84 693.181 219.095 690.231 211.888C687.277 204.676 690.894 198.07 683.235 194.161C675.571 190.258 656.942 183.949 655.002 176.737C653.061 169.525 622.741 144.289 613.136 139.785C603.532 135.277 575.045 124.464 575.045 124.464C575.045 124.464 593.552 154.775 602.596 164.69L602.591 164.68Z" fill="#633BBC"/>
<path fill-rule="evenodd" clip-rule="evenodd" d="M105.412 323.309C105.412 323.309 142.158 356.25 164 369.064C185.842 381.872 197.816 376.383 197.816 376.383C197.816 376.383 217.103 382.014 228.901 391.094C240.7 400.175 242.621 407.069 249.934 416.223C257.247 425.372 279.601 422.864 279.601 422.864L330.558 449.33L382.36 478.153C382.36 478.153 331.114 448.096 325.698 438.947C320.276 429.798 278.187 396.515 270.874 387.366C263.561 378.217 253.503 380.047 246.19 367.234C238.876 354.425 230.647 339.782 218.761 328.804C206.874 317.825 182.21 301.352 168.944 294.033C155.673 286.714 134.645 279.39 134.645 279.39L98.0748 271.153L62.4161 251.645H-101.251C-101.251 251.645 -20.9777 306.841 15.5049 320.567C29.3023 325.759 105.412 323.314 105.412 323.314V323.309Z" fill="#633BBC"/>
<path fill-rule="evenodd" clip-rule="evenodd" d="M1324.53 237.568C1324.53 237.568 1374.33 265.336 1380.63 270.743C1386.94 276.149 1376.69 279.623 1379.64 282.795C1386.97 290.69 1424.67 301.283 1424.67 301.283C1424.67 301.283 1430.97 303.425 1432.31 310.593C1433.66 317.761 1442.1 322.401 1442.1 322.401L1459.16 329.613C1459.16 329.613 1423.09 299.361 1420.14 292.154C1417.18 284.942 1412.49 284.093 1404.83 280.189C1397.17 276.286 1371.66 266.034 1369.72 258.822C1367.78 251.611 1321.35 194.902 1311.74 190.398C1302.13 185.89 1265.98 180.391 1265.98 180.391C1265.98 180.391 1315.49 227.653 1324.53 237.568V237.568Z" fill="#633BBC"/>
<path fill-rule="evenodd" clip-rule="evenodd" d="M480.866 -15.2095C480.866 -15.2095 522.941 16.2139 542.34 24.4943C542.34 24.4943 566.605 22.6791 569.886 24.4943C573.167 26.3094 587.579 35.2583 589.071 38.7422C590.563 42.2212 591.557 49.6818 594.536 53.1657C597.52 56.6447 624.349 69.5752 633.793 71.0683C643.237 72.5614 666.093 77.0358 670.563 80.022C675.034 83.0082 673.547 89.9663 676.029 93.4502C678.515 96.9292 693.419 102.902 699.382 106.878C705.345 110.855 723.973 109.865 729.566 112.348C735.158 114.837 747.083 122.292 747.083 122.292L751.549 126.269C751.549 126.269 749.057 134.725 751.549 137.209C754.04 139.697 764.473 141.683 764.473 141.683C764.473 141.683 756.522 133.725 756.522 128.753C756.522 123.781 751.549 119.799 751.549 119.799C751.549 119.799 726.709 108.362 723.228 105.375C719.751 102.389 688.441 76.5284 685.96 72.054C683.473 67.5795 678.008 55.1468 675.029 51.6629C672.046 48.1838 643.724 40.7232 636.767 37.737C629.81 34.7508 620.859 25.802 616.637 18.3413C612.419 10.8807 604.468 -9.76899 601.981 -12.4917C599.495 -15.2144 594.029 -15.2144 594.029 -15.2144H480.857L480.866 -15.2095Z" fill="#633BBC"/>
<path fill-rule="evenodd" clip-rule="evenodd" d="M900.543 213.807C900.543 213.807 923.091 228.562 929.395 233.968C935.699 239.375 956.405 241.78 960.461 243.283C964.518 244.786 974.239 258.307 974.239 258.307C974.239 258.307 979.841 268.305 981.182 275.473C982.527 282.641 1000.51 290.755 1000.51 290.755L1017.57 297.967C1017.57 297.967 991.132 268.222 988.183 261.015C985.228 253.803 988.846 247.196 981.187 243.288C973.522 239.384 954.894 233.075 952.953 225.864C951.013 218.652 920.693 193.416 911.088 188.912C901.483 184.403 872.996 173.59 872.996 173.59C872.996 173.59 891.504 203.901 900.547 213.816L900.543 213.807Z" fill="#633BBC"/>
<path fill-rule="evenodd" clip-rule="evenodd" d="M906.27 48.6816C906.27 48.6816 936.229 75.5379 954.034 85.9799C971.839 96.4218 981.599 91.9474 981.599 91.9474C981.599 91.9474 997.323 96.5389 1006.94 103.941C1016.56 111.343 1015.07 124.771 1021.03 132.232C1026.99 139.692 1051.59 134.472 1051.59 134.472L1088.45 175.22L1112.81 200.861C1112.81 200.861 1086.51 166.544 1082.1 159.088C1077.68 151.628 1047.12 108.362 1041.15 100.901C1035.19 93.4405 1026.99 94.9336 1021.03 84.4917C1015.06 74.0497 1008.36 62.1098 998.663 53.1609C988.976 44.2072 968.87 30.779 958.051 24.8115C947.233 18.844 930.091 12.8765 930.091 12.8765L900.278 6.16239L871.21 -9.73962H737.79C737.79 -9.73962 803.233 35.2583 832.973 46.4469C844.225 50.6773 906.265 48.6865 906.265 48.6865L906.27 48.6816Z" fill="#633BBC"/>
<path fill-rule="evenodd" clip-rule="evenodd" d="M1024.21 -5.2113C1024.21 -5.2113 1040.42 17.9122 1052.03 24.6263C1063.64 31.3404 1078.32 34.1997 1083.81 40.9138C1089.3 47.6279 1110.54 62.9785 1110.54 62.9785L1141.04 75.6016C1141.04 75.6016 1099.52 40.4698 1094.97 32.2968C1090.42 24.1286 1078.21 17.4145 1078.21 17.4145L1024.21 -5.2113V-5.2113Z" fill="#633BBC"/>
<path fill-rule="evenodd" clip-rule="evenodd" d="M-16.8762 131.321C-16.8762 131.321 35.2955 169.092 45.7678 178.178C56.2402 187.263 84.3713 186.575 93.6833 196.109C102.995 205.644 119.694 209.821 131.385 222.775C143.076 235.725 181.796 245.27 194.994 260.552C208.197 275.834 230.648 282.095 241.964 288.994C253.28 295.893 288.348 312.606 288.348 312.606C288.348 312.606 245.537 292.551 238.556 272.497C231.574 252.442 235.538 227.45 235.538 227.45C235.538 227.45 244.509 225.484 235.538 208.879C226.567 192.274 234.061 181.691 222.799 167.765C211.536 153.839 206.149 128.769 213.852 117.073C221.555 105.377 239.502 71.0353 235.538 50.6052C231.574 30.1702 266.414 15.1319 266.414 15.1319C266.414 15.1319 319.098 20.1479 325.431 28.5015C331.764 36.8599 378.129 50.6052 378.129 50.6052C378.129 50.6052 415.177 52.6546 420.228 50.6052C425.274 48.5559 441.153 61.9255 454.088 73.6214C467.022 85.3223 469.543 78.1935 487.504 90.714C505.47 103.235 508.902 122.137 519.209 131.325C519.209 131.325 507.673 111.149 504.046 90.714C504.046 90.714 522.499 92.7487 535.858 96.0911C549.217 99.4335 555.618 98.6919 564.847 105.748C574.076 112.803 584.237 117.258 584.237 117.258C584.237 117.258 568.606 103.147 564.847 95.3446C561.088 87.5473 558.119 79.7451 553.297 76.7735C548.476 73.802 493.895 60.0225 479.913 53.5426C465.93 47.0628 454.088 25.7105 454.088 25.7105C454.088 25.7105 422.086 -19.2875 401.897 -19.9706C381.708 -20.6538 346.317 -30.3784 333.431 -39.4688C320.546 -48.5591 278.022 -100.208 278.022 -100.208H-9.77763L-16.8762 131.321V131.321Z" fill="#633BBC"/>
<path fill-rule="evenodd" clip-rule="evenodd" d="M444.779 221.749C444.779 221.749 467.328 236.504 473.632 241.911C479.936 247.317 500.642 249.723 504.698 251.226C508.754 252.728 518.476 266.249 518.476 266.249C518.476 266.249 524.078 276.247 525.418 283.415C526.764 290.583 544.744 298.697 544.744 298.697L561.804 305.909C561.804 305.909 535.369 276.164 532.419 268.957C529.465 261.746 533.083 255.139 525.423 251.23C517.759 247.327 499.13 241.018 497.19 233.806C495.249 226.594 464.929 201.358 455.325 196.854C445.72 192.346 417.233 181.533 417.233 181.533C417.233 181.533 435.74 211.844 444.784 221.759L444.779 221.749Z" fill="#633BBC"/>
</g>
<path d="M1037.38 10.3096C1036.7 10.3096 1036.15 9.67911 1036.15 8.90137C1036.15 8.12362 1036.7 7.4931 1037.38 7.4931C1038.07 7.4931 1038.62 8.12362 1038.62 8.90137C1038.62 9.67911 1038.07 10.3096 1037.38 10.3096Z" fill="white"/>
<path d="M998.781 6.56025C998.781 7.06925 999.154 7.4934 999.611 7.4934C1000.07 7.4934 1000.44 7.06925 1000.44 6.56025C1000.44 6.05125 1000.07 5.62711 999.611 5.62711C999.154 5.62711 998.781 6.05125 998.781 6.56025Z" fill="white"/>
<path d="M1020.64 171.052C1020.03 170.712 1019.29 171.001 1018.98 171.697C1018.68 172.392 1018.93 173.24 1019.56 173.58C1020.19 173.919 1020.91 173.631 1021.22 172.935C1021.52 172.239 1021.27 171.391 1020.64 171.052Z" fill="white"/>
<path d="M991.224 43.5988C990.818 43.3783 990.309 43.5649 990.106 44.023C989.903 44.4811 990.072 45.041 990.479 45.2785C990.885 45.4991 991.394 45.3124 991.597 44.8543C991.8 44.3962 991.631 43.8364 991.224 43.5988Z" fill="white"/>
<path d="M1164.71 147.046C1163.75 147.267 1163.1 148.319 1163.31 149.422C1163.49 150.525 1164.44 151.22 1165.41 151.017C1166.37 150.796 1167.02 149.744 1166.81 148.641C1166.63 147.555 1165.68 146.843 1164.71 147.046Z" fill="white"/>
<g opacity="0.64">
<path d="M1388.77 95.7681C1388.77 96.1074 1389.01 96.3789 1389.31 96.3789C1389.62 96.3789 1389.86 96.1074 1389.86 95.7681C1389.86 95.4288 1389.62 95.1573 1389.31 95.1573C1389.01 95.1573 1388.77 95.4288 1388.77 95.7681Z" fill="white"/>
<path d="M1366.65 68.2655C1366.65 68.486 1366.82 68.6727 1367.01 68.6727C1367.19 68.6727 1367.36 68.486 1367.36 68.2655C1367.36 68.0449 1367.19 67.8583 1367.01 67.8583C1366.82 67.8583 1366.65 68.0449 1366.65 68.2655Z" fill="white"/>
<path d="M1361.28 126.852C1361.01 126.699 1360.69 126.835 1360.55 127.124C1360.41 127.412 1360.53 127.785 1360.8 127.938C1361.08 128.091 1361.4 127.955 1361.53 127.667C1361.67 127.361 1361.55 127.005 1361.28 126.852Z" fill="white"/>
<path d="M1309.38 76.7324C1309.19 76.6306 1308.99 76.7324 1308.9 76.919C1308.82 77.1226 1308.9 77.3601 1309.07 77.4619C1309.26 77.5637 1309.46 77.4619 1309.55 77.2753C1309.63 77.0886 1309.55 76.8342 1309.38 76.7324Z" fill="white"/>
<path d="M1425.81 124.852C1425.39 124.954 1425.12 125.412 1425.2 125.887C1425.28 126.363 1425.69 126.668 1426.12 126.583C1426.54 126.481 1426.81 126.023 1426.73 125.548C1426.64 125.073 1426.23 124.768 1425.81 124.852Z" fill="white"/>
</g>
<g opacity="0.64">
<path d="M1063.1 99.4548C1063.15 99.1154 1062.95 98.8101 1062.66 98.7422C1062.37 98.6913 1062.08 98.9118 1062.03 99.2342C1061.98 99.5735 1062.19 99.879 1062.47 99.9468C1062.76 100.015 1063.05 99.7771 1063.1 99.4548Z" fill="white"/>
<path d="M1078.95 103.56C1078.98 103.339 1078.85 103.136 1078.66 103.085C1078.46 103.051 1078.27 103.204 1078.24 103.424C1078.2 103.645 1078.34 103.848 1078.53 103.899C1078.73 103.933 1078.92 103.781 1078.95 103.56Z" fill="white"/>
<path d="M1119.45 103.286C1119.89 103.643 1120.5 103.524 1120.81 103.032C1121.13 102.54 1121.03 101.861 1120.59 101.505C1120.15 101.149 1119.54 101.267 1119.23 101.759C1118.91 102.251 1119.01 102.93 1119.45 103.286Z" fill="white"/>
<path d="M1057.66 57.6627C1057.94 57.9002 1058.35 57.8323 1058.57 57.493C1058.77 57.1706 1058.72 56.7126 1058.42 56.4751C1058.13 56.2375 1057.72 56.3053 1057.5 56.6447C1057.3 56.967 1057.35 57.4252 1057.66 57.6627Z" fill="white"/>
<path d="M1030.97 63.7039C1031.39 63.7039 1031.73 63.2967 1031.73 62.8047C1031.73 62.3127 1031.36 61.9394 1030.94 61.9564C1030.51 61.9564 1030.17 62.3636 1030.17 62.8556C1030.17 63.3476 1030.55 63.7209 1030.97 63.7039Z" fill="white"/>
<path d="M1162.68 49.9628C1162.68 50.5736 1163.12 51.0656 1163.66 51.0656C1164.2 51.0656 1164.64 50.5736 1164.64 49.9628C1164.64 49.352 1164.2 48.8599 1163.66 48.8599C1163.12 48.8599 1162.68 49.352 1162.68 49.9628Z" fill="white"/>
<path d="M1197.94 126.108C1197.94 127.33 1198.83 128.314 1199.91 128.314C1200.99 128.314 1201.88 127.33 1201.88 126.108C1201.88 124.887 1200.99 123.903 1199.91 123.903C1198.83 123.903 1197.94 124.887 1197.94 126.108Z" fill="white"/>
</g>
<g opacity="0.64">
<path d="M203.108 9.90853C202.939 9.7219 202.667 9.7219 202.498 9.90853C202.329 10.0952 202.329 10.4175 202.498 10.6042C202.667 10.7908 202.939 10.7908 203.108 10.6042C203.278 10.4175 203.278 10.0952 203.108 9.90853Z" fill="white"/>
</g>
<g opacity="0.64">
<path d="M97.6065 81.185C97.3523 81.4734 97.3353 81.9315 97.6065 82.22C97.8606 82.5084 98.2673 82.5254 98.5384 82.22C98.7926 81.9315 98.8096 81.4734 98.5384 81.185C98.2673 80.8966 97.8776 80.8796 97.6065 81.185Z" fill="white"/>
<path d="M100.077 36.4239C99.9077 36.6106 99.9077 36.9329 100.077 37.1196C100.247 37.3062 100.518 37.3232 100.687 37.1196C100.857 36.9329 100.857 36.6275 100.687 36.4239C100.518 36.2203 100.247 36.2203 100.077 36.4239Z" fill="white"/>
<path d="M50.5836 80.6032C50.4649 80.2129 50.1091 80.0093 49.7533 80.1281C49.4144 80.2469 49.228 80.671 49.3296 81.0613C49.4482 81.4515 49.8041 81.6551 50.1599 81.5363C50.4988 81.4176 50.6852 80.9934 50.5836 80.6032Z" fill="white"/>
<path d="M106.517 141.823C106.093 141.484 105.5 141.619 105.212 142.094C104.924 142.569 105.026 143.231 105.45 143.571C105.873 143.91 106.466 143.774 106.754 143.299C107.042 142.824 106.941 142.162 106.517 141.823Z" fill="white"/>
</g>
<g opacity="0.64">
<path d="M650.122 113.691C650.393 113.979 650.85 114.047 651.138 113.81C651.426 113.589 651.443 113.165 651.155 112.86C650.884 112.571 650.427 112.503 650.139 112.741C649.851 112.961 649.834 113.386 650.122 113.691Z" fill="white"/>
<path d="M606.526 106.309C606.712 106.513 607.017 106.547 607.204 106.394C607.39 106.242 607.407 105.953 607.204 105.766C607.017 105.563 606.712 105.529 606.526 105.682C606.339 105.834 606.322 106.123 606.526 106.309Z" fill="white"/>
<path d="M649.062 161.842C648.689 161.91 648.469 162.267 648.587 162.64C648.706 163.013 649.112 163.234 649.485 163.166C649.858 163.098 650.078 162.742 649.96 162.368C649.841 161.995 649.434 161.775 649.062 161.842Z" fill="white"/>
<path d="M558.481 157.195C558.226 157.246 558.091 157.483 558.176 157.721C558.26 157.958 558.532 158.128 558.769 158.077C559.023 158.026 559.159 157.789 559.074 157.551C558.989 157.314 558.718 157.144 558.481 157.195Z" fill="white"/>
<path d="M709.323 111.147C709.001 111.554 709.102 112.165 709.577 112.521C710.051 112.877 710.695 112.844 711.017 112.436C711.339 112.029 711.238 111.418 710.763 111.062C710.289 110.706 709.645 110.74 709.323 111.147Z" fill="white"/>
</g>
<g opacity="0.64">
<path d="M440.215 158.901C439.961 159.19 439.944 159.648 440.215 159.936C440.486 160.225 440.876 160.242 441.147 159.936C441.401 159.648 441.418 159.19 441.147 158.901C440.893 158.613 440.486 158.596 440.215 158.901Z" fill="white"/>
<path d="M442.669 114.14C442.5 114.326 442.5 114.632 442.669 114.835C442.839 115.022 443.11 115.039 443.279 114.835C443.449 114.649 443.449 114.326 443.279 114.14C443.11 113.953 442.839 113.936 442.669 114.14Z" fill="white"/>
<path d="M391.003 147.515C390.884 147.125 390.528 146.921 390.172 147.04C389.834 147.159 389.647 147.583 389.749 147.973C389.867 148.363 390.223 148.567 390.579 148.448C390.918 148.33 391.104 147.905 391.003 147.515Z" fill="white"/>
<path d="M387.874 65.4458C387.806 65.1913 387.552 65.0556 387.332 65.1404C387.111 65.2253 386.976 65.4967 387.06 65.7682C387.128 66.0227 387.382 66.1585 387.603 66.0736C387.823 65.9888 387.959 65.7173 387.874 65.4458Z" fill="white"/>
<path d="M429.599 200.106C429.176 199.767 428.583 199.903 428.295 200.378C428.007 200.853 428.108 201.515 428.532 201.854C428.956 202.193 429.549 202.058 429.837 201.582C430.125 201.107 430.023 200.446 429.599 200.106Z" fill="white"/>
</g>
<g opacity="0.64">
<path d="M565.979 47.1899C565.928 47.5292 566.132 47.8346 566.42 47.9024C566.708 47.9533 566.996 47.7328 567.047 47.4104C567.097 47.0711 566.894 46.7657 566.606 46.6978C566.318 46.63 566.03 46.8675 565.979 47.1899Z" fill="white"/>
<path d="M550.123 43.0859C550.09 43.3065 550.225 43.5101 550.411 43.561C550.615 43.5949 550.801 43.4423 550.835 43.2217C550.869 43.0011 550.733 42.7975 550.547 42.7466C550.344 42.7127 550.157 42.8654 550.123 43.0859Z" fill="white"/>
<path d="M509.622 43.3738C509.182 43.0175 508.572 43.1363 508.267 43.6283C507.945 44.1203 508.046 44.799 508.487 45.1553C508.928 45.5116 509.538 45.3928 509.843 44.9008C510.165 44.4088 510.063 43.7301 509.622 43.3738Z" fill="white"/>
<path d="M528.058 17.7357C527.77 17.4981 527.364 17.566 527.143 17.9054C526.94 18.2277 526.991 18.6858 527.296 18.9234C527.584 19.1609 527.991 19.093 528.211 18.7537C528.431 18.4144 528.363 17.9732 528.058 17.7357Z" fill="white"/>
<path d="M608.94 95.9026C608.516 95.9026 608.178 96.3098 608.178 96.8018C608.178 97.2939 608.55 97.6671 608.974 97.6502C609.398 97.6502 609.736 97.243 609.736 96.7509C609.736 96.2589 609.364 95.8856 608.94 95.9026Z" fill="white"/>
<path d="M480.501 154.441C479.958 154.441 479.518 153.948 479.518 153.339C479.518 152.729 479.958 152.236 480.501 152.236C481.044 152.236 481.484 152.729 481.484 153.339C481.484 153.948 481.044 154.441 480.501 154.441Z" fill="white"/>
<path d="M431.124 20.5359C431.124 19.3143 430.242 18.3303 429.158 18.3303C428.073 18.3303 427.192 19.3143 427.192 20.5359C427.192 21.7575 428.073 22.7416 429.158 22.7416C430.242 22.7416 431.124 21.7575 431.124 20.5359Z" fill="white"/>
</g>
<g opacity="0.64">
<path d="M1139.32 292.873C1139.23 292.55 1138.93 292.33 1138.64 292.397C1138.35 292.465 1138.18 292.771 1138.26 293.093C1138.35 293.415 1138.65 293.636 1138.94 293.568C1139.23 293.5 1139.4 293.195 1139.32 292.873Z" fill="white"/>
<path d="M1155.51 290.396C1155.46 290.176 1155.26 290.04 1155.05 290.074C1154.85 290.108 1154.75 290.328 1154.8 290.549C1154.85 290.77 1155.05 290.905 1155.26 290.871C1155.46 290.837 1155.56 290.617 1155.51 290.396Z" fill="white"/>
<path d="M1192.6 274.211C1193.15 274.364 1193.65 274.025 1193.76 273.448C1193.86 272.871 1193.49 272.277 1192.94 272.125C1192.4 271.972 1191.89 272.311 1191.79 272.888C1191.69 273.465 1192.06 274.059 1192.6 274.211Z" fill="white"/>
<path d="M1185.84 305.006C1186.2 305.108 1186.55 304.888 1186.6 304.497C1186.67 304.107 1186.42 303.717 1186.06 303.615C1185.71 303.513 1185.35 303.734 1185.3 304.124C1185.23 304.514 1185.49 304.905 1185.84 305.006Z" fill="white"/>
<path d="M1080.52 265.049C1080.91 264.863 1081.06 264.371 1080.85 263.93C1080.65 263.488 1080.18 263.285 1079.79 263.454C1079.4 263.641 1079.24 264.133 1079.45 264.574C1079.65 265.015 1080.13 265.219 1080.52 265.049Z" fill="white"/>
<path d="M1174.81 162.11C1175.05 162.67 1175.66 162.959 1176.15 162.738C1176.64 162.518 1176.86 161.907 1176.6 161.347C1176.35 160.787 1175.76 160.499 1175.27 160.719C1174.77 160.94 1174.55 161.55 1174.81 162.11Z" fill="white"/>
</g>
<g opacity="0.64">
<path d="M543.842 275.019C543.706 274.29 543.198 273.798 542.723 273.95C542.249 274.086 541.961 274.816 542.113 275.545C542.266 276.275 542.757 276.767 543.232 276.614C543.706 276.461 543.994 275.749 543.842 275.019Z" fill="white"/>
<path d="M570.398 269.436C570.313 268.944 569.974 268.622 569.652 268.723C569.33 268.825 569.144 269.3 569.246 269.792C569.33 270.284 569.669 270.607 569.991 270.505C570.313 270.403 570.5 269.928 570.398 269.436Z" fill="white"/>
<path d="M631.249 232.74C632.13 233.097 632.978 232.316 633.13 231.01C633.283 229.703 632.689 228.363 631.808 228.006C630.927 227.65 630.08 228.431 629.927 229.737C629.775 231.044 630.368 232.384 631.249 232.74Z" fill="white"/>
<path d="M620.151 302.538C620.744 302.776 621.303 302.25 621.405 301.384C621.507 300.519 621.117 299.62 620.524 299.382C619.931 299.145 619.372 299.671 619.27 300.536C619.168 301.401 619.558 302.301 620.151 302.538Z" fill="white"/>
<path d="M357.623 248.094C358.267 247.687 358.521 246.55 358.182 245.549C357.843 244.548 357.064 244.073 356.42 244.48C355.776 244.887 355.522 246.024 355.861 247.025C356.2 248.026 356.979 248.501 357.623 248.094Z" fill="white"/>
</g>
<g opacity="0.64">
<path d="M830.077 170C830.365 169.813 830.467 169.457 830.314 169.202C830.162 168.948 829.806 168.88 829.518 169.066C829.23 169.253 829.128 169.609 829.281 169.864C829.433 170.118 829.789 170.186 830.077 170Z" fill="white"/>
<path d="M837.514 184.541C837.701 184.422 837.768 184.185 837.667 184.015C837.565 183.845 837.328 183.811 837.141 183.93C836.955 184.049 836.887 184.286 836.989 184.456C837.091 184.626 837.328 184.66 837.514 184.541Z" fill="white"/>
<path d="M864.629 214.502C864.646 215.062 865.138 215.436 865.714 215.351C866.29 215.266 866.748 214.723 866.714 214.163C866.697 213.603 866.205 213.23 865.629 213.315C865.053 213.4 864.596 213.943 864.629 214.502Z" fill="white"/>
<path d="M833.143 217.796C833.143 218.169 833.482 218.423 833.872 218.356C834.262 218.288 834.55 217.948 834.55 217.575C834.55 217.202 834.211 216.947 833.821 217.015C833.431 217.083 833.143 217.422 833.143 217.796Z" fill="white"/>
<path d="M838.081 105.678C838.369 105.984 838.912 105.984 839.268 105.644C839.623 105.322 839.674 104.796 839.386 104.474C839.098 104.168 838.556 104.168 838.2 104.508C837.844 104.83 837.793 105.356 838.081 105.678Z" fill="white"/>
<path d="M965.873 162.434C965.415 162.841 965.33 163.486 965.686 163.893C966.042 164.3 966.703 164.3 967.16 163.893C967.618 163.486 967.703 162.841 967.347 162.434C966.991 162.026 966.33 162.026 965.873 162.434Z" fill="white"/>
</g>
<g opacity="0.64">
<path d="M248.487 236.052C248.403 235.729 248.098 235.509 247.81 235.577C247.522 235.644 247.352 235.95 247.437 236.272C247.522 236.595 247.827 236.815 248.115 236.747C248.403 236.679 248.572 236.374 248.487 236.052Z" fill="white"/>
<path d="M264.682 233.593C264.632 233.372 264.428 233.237 264.225 233.271C264.022 233.305 263.92 233.525 263.971 233.746C264.022 233.966 264.225 234.102 264.428 234.068C264.632 234.034 264.733 233.814 264.682 233.593Z" fill="white"/>
<path d="M301.776 217.386C302.319 217.539 302.827 217.199 302.929 216.622C303.03 216.045 302.657 215.452 302.115 215.299C301.573 215.146 301.065 215.486 300.963 216.062C300.861 216.639 301.234 217.233 301.776 217.386Z" fill="white"/>
<path d="M189.695 208.227C190.085 208.041 190.237 207.548 190.034 207.107C189.831 206.666 189.356 206.463 188.967 206.632C188.577 206.819 188.424 207.311 188.628 207.752C188.831 208.193 189.305 208.397 189.695 208.227Z" fill="white"/>
</g>
<path d="M895.713 66.757C895.222 65.6541 894.036 65.213 893.053 65.7729C892.07 66.3328 891.68 67.6732 892.172 68.776C892.663 69.8788 893.849 70.32 894.832 69.7601C895.815 69.2002 896.205 67.8598 895.713 66.757Z" fill="white"/>
<path d="M754.288 68.0638C754.983 68.0638 755.525 67.4191 755.525 66.6386C755.525 65.8582 754.949 65.2473 754.271 65.2473C753.577 65.2473 753.034 65.8921 753.034 66.6725C753.034 67.453 753.611 68.0638 754.288 68.0638Z" fill="white"/>
<path d="M887.635 112.331C888.092 112.331 888.465 111.906 888.448 111.381C888.448 110.872 888.059 110.447 887.601 110.464C887.144 110.464 886.771 110.888 886.788 111.414C886.788 111.923 887.177 112.348 887.635 112.331Z" fill="white"/>
<path d="M606.078 119.286C605.638 118.301 604.57 117.911 603.689 118.403C602.808 118.895 602.469 120.1 602.91 121.084C603.35 122.068 604.418 122.458 605.299 121.966C606.18 121.474 606.519 120.27 606.078 119.286Z" fill="white"/>
<path d="M469.132 241.649C469.641 241.649 470.047 241.174 470.047 240.597C470.047 240.02 469.624 239.562 469.115 239.562C468.607 239.562 468.2 240.037 468.2 240.614C468.2 241.191 468.624 241.649 469.132 241.649Z" fill="white"/>
<path d="M526.211 68.3542C527.194 68.3542 527.973 67.438 527.956 66.3352C527.956 65.2324 527.143 64.3501 526.16 64.3671C525.177 64.384 524.398 65.2833 524.415 66.3861C524.415 67.4889 525.228 68.3712 526.211 68.3542Z" fill="white"/>
<path d="M199.202 127.636C199.66 127.229 199.745 126.483 199.389 125.974C199.033 125.465 198.372 125.363 197.915 125.77C197.457 126.177 197.372 126.924 197.728 127.433C198.084 127.942 198.745 128.043 199.202 127.636Z" fill="white"/>
<path d="M356.192 359.974C356.701 359.974 357.107 359.499 357.107 358.922C357.107 358.345 356.684 357.887 356.175 357.887C355.667 357.887 355.26 358.362 355.26 358.939C355.26 359.516 355.684 359.974 356.192 359.974Z" fill="white"/>
<path d="M399.703 176.496C400.686 176.496 401.465 175.58 401.448 174.477C401.448 173.375 400.635 172.492 399.652 172.509C398.669 172.526 397.89 173.425 397.907 174.528C397.907 175.631 398.72 176.513 399.703 176.496Z" fill="white"/>
<path d="M86.246 245.96C86.7035 245.553 86.7882 244.806 86.4323 244.297C86.0765 243.788 85.4156 243.686 84.9581 244.094C84.5006 244.501 84.4159 245.247 84.7717 245.756C85.1276 246.265 85.7884 246.367 86.246 245.96Z" fill="white"/>
<g opacity="0.4" filter="url(#filter0_f_4_23)">
<ellipse cx="715" cy="-26" rx="502" ry="295" fill="#633BBC"/>
</g>
<rect width="1440" height="729.6" transform="matrix(1 0 0 -1 -0.000610352 729.6)" fill="url(#paint0_radial_4_23)"/>
</g>
<defs>
<filter id="filter0_f_4_23" x="-137" y="-671" width="1704" height="1290" filterUnits="userSpaceOnUse" color-interpolation-filters="sRGB">
<feFlood flood-opacity="0" result="BackgroundImageFix"/>
<feBlend mode="normal" in="SourceGraphic" in2="BackgroundImageFix" result="shape"/>
<feGaussianBlur stdDeviation="175" result="effect1_foregroundBlur_4_23"/>
</filter>
<radialGradient id="paint0_radial_4_23" cx="0" cy="0" r="1" gradientUnits="userSpaceOnUse" gradientTransform="translate(720.001 729.6) rotate(-90) scale(595 720)">
<stop stop-color="#121214" stop-opacity="0"/>
<stop offset="1" stop-color="#121214"/>
</radialGradient>
<clipPath id="clip0_4_23">
<rect width="1440" height="608" fill="white"/>
</clipPath>
</defs>
</svg>
